<?xml version="1.0" encoding="UTF-8"?>
<svg id="Capa_2" xmlns="http://www.w3.org/2000/svg" version="1.1" viewBox="0 0 610.1 380.7">
  <!-- Generator: Adobe Illustrator 29.7.1, SVG Export Plug-In . SVG Version: 2.1.1 Build 8)  -->
  <g id="Capa_1-2">
    <g>
      <path d="M305.5,357.4l-44.3-145.4v-.4c-.8-3.8,1.1-5.9,3.2-6.7,12.1-7,21.7-17.5,28.5-31.2,6.9-13.9,10.5-30.8,10.5-50.1s-3.3-35.5-9.8-49.9c-6.5-14.3-15.6-25.5-27.2-33.3-11.5-7.7-25.1-11.7-40.2-11.7h-84.7c-.5,0-.9.2-1.3.6-.5.5-.6,1-.6,1.7v326.1c0,.8.2,1.2.6,1.7.4.4.8.6,1.3.6h41.5c.5,0,.8,0,1.3-.6.5-.5.6-1,.6-1.7v-137c0-3.5,2.3-5.9,5.7-5.9h23.9c1.3,0,3.8.5,5.4,3.9v.3c.1,0,38.5,138.7,38.5,138.7.6,2.1,1.4,2.3,2.5,2.3h43.3c1,0,1.4-.2,1.4-.2h0s0-.3,0-.7c0-.6-.1-.9-.1-.9v-.2c-.1,0-.1,0-.1,0ZM247.3,162.8c-7.4,9.9-17.2,14.9-29.2,14.9h-27.5c-3.4,0-5.7-2.4-5.7-5.9v-96c0-3.5,2.3-5.9,5.7-5.9h27.5c11.9,0,21.8,5.1,29.2,15.2,7.2,9.7,10.8,22.8,10.8,39s-3.6,29.2-10.9,38.8h0Z"/>
      <path d="M459.8,28.7h-41.5c-.5,0-.9.2-1.3.6-.5.5-.6,1-.6,1.7v136c0,3.5-2.3,5.9-5.7,5.9h-57.2c-3.4,0-5.7-2.4-5.7-5.9V31c0-.7-.2-1.2-.6-1.7-.5-.5-.8-.6-1.3-.6h-41.5c-.5,0-.9.2-1.3.6-.5.5-.6,1-.6,1.7v326.1c0,.8.2,1.2.6,1.7.4.4.8.6,1.3.6h41.5c.5,0,.8,0,1.3-.6.5-.5.6-1,.6-1.7v-136.5c0-3.5,2.3-5.9,5.7-5.9h57.2c3.4,0,5.7,2.4,5.7,5.9v136.5c0,.8.2,1.2.6,1.7.4.4.7.6,1.3.6h41.5c.5,0,.8,0,1.3-.6.5-.5.6-1,.6-1.7V31.1c0-.7-.2-1.2-.6-1.7-.5-.5-.8-.6-1.3-.6h0Z"/>
    </g>
  </g>
  <circle cx="107.1" cy="36.3" r="17.4"/>
  <circle cx="107.1" cy="341.8" r="17.4"/>
  <circle cx="503.4" cy="35.9" r="17.4"/>
  <circle cx="504.2" cy="343.6" r="17.4"/>
</svg>